<svg width="1600" height="900" viewBox="0 0 1600 900" fill="none" xmlns="http://www.w3.org/2000/svg">
  <rect width="1600" height="900" rx="36" fill="#F8FBFF"/>
  <rect x="64" y="40" width="1472" height="72" rx="24" fill="white" stroke="#E5EDFB"/>
  <rect x="106" y="64" width="42" height="24" rx="12" fill="#1C64F2" fill-opacity="0.15"/>
  <rect x="160" y="63" width="110" height="26" rx="13" fill="#1C64F2" fill-opacity="0.12"/>
  <rect x="1264" y="62" width="108" height="28" rx="14" fill="#EEF4FF"/>
  <rect x="1390" y="58" width="54" height="36" rx="18" fill="#EEF4FF"/>
  <rect x="1458" y="58" width="54" height="36" rx="18" fill="#EEF4FF"/>
  <rect x="596" y="150" width="408" height="48" rx="24" fill="#EAF2FF"/>
  <rect x="500" y="224" width="600" height="42" rx="21" fill="#111827"/>
  <rect x="588" y="280" width="424" height="20" rx="10" fill="#94A3B8"/>
  <rect x="318" y="354" width="964" height="272" rx="32" fill="white" stroke="#E5EDFB"/>
  <rect x="354" y="402" width="892" height="156" rx="24" fill="#FBFDFF" stroke="#EAF0FB"/>
  <rect x="389" y="434" width="468" height="10" rx="5" fill="#E11D48" fill-opacity="0.3"/>
  <rect x="389" y="466" width="418" height="10" rx="5" fill="#0EA5E9" fill-opacity="0.3"/>
  <rect x="389" y="498" width="360" height="10" rx="5" fill="#16A34A" fill-opacity="0.3"/>
  <rect x="666" y="578" width="268" height="50" rx="14" fill="#1C64F2"/>
  <rect x="312" y="664" width="246" height="180" rx="28" fill="white" stroke="#E5EDFB"/>
  <rect x="584" y="664" width="698" height="180" rx="28" fill="white" stroke="#E5EDFB"/>
  <text x="800" y="812" text-anchor="middle" fill="#1C64F2" font-family="Arial, sans-serif" font-size="28" font-weight="700">Awseal home screenshot placeholder</text>
</svg>
